<svg width="957" height="217" viewBox="0 0 957 217" fill="none" xmlns="http://www.w3.org/2000/svg">
<path d="M737.873 137.843H729.375V93.9339H757.703V99.5995H737.873V113.764H756.287V119.429H737.873V137.843Z" fill="#FF3D7F"/>
<path d="M811.526 137.843H783.198V93.9339H811.526V99.5995H790.28V112.347H808.694V118.013H790.28V132.177H811.526V137.843Z" fill="#FF3D7F"/>
<path d="M845.52 93.9339H837.022V137.843H863.934V132.177H845.52V93.9339Z" fill="#FF3D7F"/>
<path d="M896.511 137.843H889.429V93.9339H896.511V137.843Z" fill="#FF3D7F"/>
<path d="M923.423 99.5995V93.9339H954.584V96.7667L931.921 132.177H956V137.843H922.006V136.426L945.377 99.5995H923.423Z" fill="#FF3D7F"/>
<path d="M737.873 137.843H729.375V93.9339H757.703V99.5995H737.873V113.764H756.287V119.429H737.873V137.843Z" stroke="#FF3D7F" stroke-width="0.708204"/>
<path d="M811.526 137.843H783.198V93.9339H811.526V99.5995H790.28V112.347H808.694V118.013H790.28V132.177H811.526V137.843Z" stroke="#FF3D7F" stroke-width="0.708204"/>
<path d="M845.52 93.9339H837.022V137.843H863.934V132.177H845.52V93.9339Z" stroke="#FF3D7F" stroke-width="0.708204"/>
<path d="M896.511 137.843H889.429V93.9339H896.511V137.843Z" stroke="#FF3D7F" stroke-width="0.708204"/>
<path d="M923.423 99.5995V93.9339H954.584V96.7667L931.921 132.177H956V137.843H922.006V136.426L945.377 99.5995H923.423Z" stroke="#FF3D7F" stroke-width="0.708204"/>
<path d="M8.92745 166.071C-4.67255 136.871 2.26079 109.238 7.42745 99.0714C7.76079 98.9047 8.92746 98.6714 10.9275 99.0714C15.9275 100.571 28.4275 101.071 44.4275 101.071C60.4275 101.071 68.9275 92.5714 76.4275 87.0714C83.9275 81.5714 94.4275 77.0714 104.427 76.0714C133.227 76.0714 145.094 93.4047 147.427 102.071C148.761 106.071 150.827 118.171 148.427 134.571C145.427 155.071 153.927 163.571 160.927 170.571C141.522 203.909 114.194 211.498 105.06 214.035L104.927 214.071C95.9275 216.571 82.9275 216.571 79.9275 215.571C73.9681 213.088 73.4345 209.619 72.4477 203.203L72.4275 203.071C71.6275 197.871 74.7608 187.571 76.4275 183.071C78.4275 177.405 86.1275 165.171 100.927 161.571C115.727 157.971 119.761 153.405 119.927 151.571C120.094 150.905 120.127 149.671 118.927 150.071C117.427 150.571 107.427 151.571 97.4275 151.571C99.4275 151.571 110.427 149.071 116.427 147.571C120.927 145.071 121.927 140.071 121.927 139.071C121.927 138.071 121.427 137.071 118.927 135.571C116.427 134.071 115.427 132.071 114.927 130.571C114.527 129.371 112.761 128.738 111.927 128.571C108.594 129.238 100.427 130.371 94.4275 129.571C86.9275 128.571 83.9275 122.571 81.4275 121.071C68.2275 119.471 57.5941 120.405 53.9275 121.071L52.9275 121.571C53.4275 128.571 53.1275 143.871 47.9275 149.071C41.4275 155.571 37.4275 157.071 36.4275 156.571C35.4275 156.071 33.9275 153.571 32.9275 151.571C31.9275 149.571 31.4275 147.571 31.4275 145.571C31.4275 143.971 30.4275 141.238 29.9275 140.071L28.4275 138.071C28.0941 143.571 27.3275 155.571 26.9275 159.571C24.4275 163.071 18.4275 166.571 14.4275 167.571C13.2608 167.571 10.5275 167.271 8.92745 166.071Z" fill="#FF3D7F"/>
<path d="M33.4275 179.071C29.0275 179.071 25.5941 184.071 24.4275 186.571C24.4275 187.071 24.5275 188.371 24.9275 189.571C25.4275 191.071 26.4275 192.071 28.9275 194.571C32.1275 198.971 37.9275 202.405 40.4275 203.571C41.7608 204.071 44.7275 204.771 45.9275 203.571C47.1275 202.371 46.4275 199.071 45.9275 197.571C45.5941 196.905 44.7275 195.371 43.9275 194.571C42.9275 193.571 41.4275 191.571 40.4275 189.571C39.6275 187.971 39.4275 183.571 39.4275 181.571C39.2608 180.738 37.8275 179.071 33.4275 179.071Z" fill="#FF3D7F"/>
<path d="M80.9275 127.571L72.4275 136.071L76.9275 134.571C78.4275 134.071 88.9275 134.571 88.9275 134.071C88.9275 133.571 84.4275 128.571 83.4275 127.571C82.6275 126.771 81.4275 127.238 80.9275 127.571Z" fill="#FF3D7F"/>
<path d="M162.427 132.071C158.531 148.822 170.927 158.071 172.427 158.571C173.927 159.071 175.519 159.289 179.427 158.071C182.927 156.571 195.427 150.071 198.927 141.571C202.427 133.071 200.927 124.071 200.927 120.071C200.927 116.871 198.261 107.405 196.927 103.071C195.927 98.238 191.927 90.0714 183.927 96.0714C173.927 103.571 164.927 124.571 162.427 132.071Z" fill="#FF3D7F"/>
<path d="M145.427 41.0714C135.027 70.2714 142.427 81.5714 147.427 83.0714C149.626 84.4646 154.01 85.6519 155.927 86.0714C164.927 87.5714 174.427 76.5714 178.927 69.5714C183.927 63.0714 183.927 51.0714 183.927 47.0714C183.927 43.0714 181.927 34.5714 180.427 30.5714C179.227 27.3714 176.594 23.5714 175.427 22.0714C174.261 20.738 171.527 17.8714 169.927 17.0714C167.927 16.0714 165.427 15.5714 161.427 16.5714C157.427 17.5714 153.427 23.5714 152.427 25.0714C151.427 26.5714 147.927 33.5714 145.427 41.0714Z" fill="#FF3D7F"/>
<path d="M77.9275 49.5714C78.3275 58.7714 87.4275 65.4047 91.9275 67.5714C94.0941 68.238 99.7275 69.0714 104.927 67.0714C111.427 64.5714 116.427 52.5714 118.927 47.0714C121.427 41.5714 125.427 28.5714 125.927 15.0714C126.327 4.27138 118.094 1.23805 113.927 1.07138C108.761 0.571378 96.2275 2.47138 87.4275 14.0714C76.4275 28.5714 77.4275 38.0714 77.9275 49.5714Z" fill="#FF3D7F"/>
<path d="M23.9275 57.5714C20.3275 73.1714 27.4275 83.0714 31.4275 86.0714C32.9275 86.738 36.6275 87.9714 39.4275 87.5714C40.5941 87.5714 43.9275 86.9714 47.9275 84.5714C54.9275 81.5714 59.4275 65.0714 60.9275 57.5714C62.4275 50.0714 61.9275 42.0714 61.9275 37.0714C61.9275 33.0714 60.2608 28.4047 59.4275 26.5714C58.9275 25.738 57.4275 24.0714 55.4275 24.0714C53.4275 24.0714 50.2608 25.738 48.9275 26.5714C42.4275 30.738 28.3275 42.7714 23.9275 57.5714Z" fill="#FF3D7F"/>
<path d="M111.927 143.571C110.927 143.071 113.094 141.405 113.927 141.571C114.174 142.134 114.519 143.322 113.927 143.571C113.594 143.905 112.927 144.071 111.927 143.571Z" fill="#FF3D7F"/>
<path d="M117.427 140.571C117.427 139.771 118.427 139.571 118.927 139.571C119.327 139.971 118.761 140.738 118.427 141.071C118.094 141.238 117.427 141.371 117.427 140.571Z" fill="#FF3D7F"/>
<path d="M116.927 144.071C117.327 144.471 116.761 144.905 116.427 145.071C115.627 145.071 115.761 144.405 115.927 144.071C116.094 143.905 116.527 143.671 116.927 144.071Z" fill="#FF3D7F"/>
<path d="M8.92745 166.071C-4.67255 136.871 2.26079 109.238 7.42745 99.0714C7.76079 98.9047 8.92746 98.6714 10.9275 99.0714C15.9275 100.571 28.4275 101.071 44.4275 101.071C60.4275 101.071 68.9275 92.5714 76.4275 87.0714C83.9275 81.5714 94.4275 77.0714 104.427 76.0714C133.227 76.0714 145.094 93.4047 147.427 102.071C148.761 106.071 150.827 118.171 148.427 134.571C145.427 155.071 153.927 163.571 160.927 170.571C141.522 203.909 114.194 211.498 105.06 214.035L104.927 214.071C95.9275 216.571 82.9275 216.571 79.9275 215.571C73.9681 213.088 73.4345 209.619 72.4477 203.203L72.4275 203.071C71.6275 197.871 74.7608 187.571 76.4275 183.071C78.4275 177.405 86.1275 165.171 100.927 161.571C115.727 157.971 119.761 153.405 119.927 151.571C120.094 150.905 120.127 149.671 118.927 150.071C117.427 150.571 107.427 151.571 97.4275 151.571C99.4275 151.571 110.427 149.071 116.427 147.571C120.927 145.071 121.927 140.071 121.927 139.071C121.927 138.071 121.427 137.071 118.927 135.571C116.427 134.071 115.427 132.071 114.927 130.571C114.527 129.371 112.761 128.738 111.927 128.571C108.594 129.238 100.427 130.371 94.4275 129.571C86.9275 128.571 83.9275 122.571 81.4275 121.071C68.2275 119.471 57.5941 120.405 53.9275 121.071L52.9275 121.571C53.4275 128.571 53.1275 143.871 47.9275 149.071C41.4275 155.571 37.4275 157.071 36.4275 156.571C35.4275 156.071 33.9275 153.571 32.9275 151.571C31.9275 149.571 31.4275 147.571 31.4275 145.571C31.4275 143.971 30.4275 141.238 29.9275 140.071L28.4275 138.071C28.0941 143.571 27.3275 155.571 26.9275 159.571C24.4275 163.071 18.4275 166.571 14.4275 167.571C13.2608 167.571 10.5275 167.271 8.92745 166.071Z" stroke="#FF3D7F" stroke-width="0.5"/>
<path d="M33.4275 179.071C29.0275 179.071 25.5941 184.071 24.4275 186.571C24.4275 187.071 24.5275 188.371 24.9275 189.571C25.4275 191.071 26.4275 192.071 28.9275 194.571C32.1275 198.971 37.9275 202.405 40.4275 203.571C41.7608 204.071 44.7275 204.771 45.9275 203.571C47.1275 202.371 46.4275 199.071 45.9275 197.571C45.5941 196.905 44.7275 195.371 43.9275 194.571C42.9275 193.571 41.4275 191.571 40.4275 189.571C39.6275 187.971 39.4275 183.571 39.4275 181.571C39.2608 180.738 37.8275 179.071 33.4275 179.071Z" stroke="#FF3D7F" stroke-width="0.5"/>
<path d="M80.9275 127.571L72.4275 136.071L76.9275 134.571C78.4275 134.071 88.9275 134.571 88.9275 134.071C88.9275 133.571 84.4275 128.571 83.4275 127.571C82.6275 126.771 81.4275 127.238 80.9275 127.571Z" stroke="#FF3D7F" stroke-width="0.5"/>
<path d="M162.427 132.071C158.531 148.822 170.927 158.071 172.427 158.571C173.927 159.071 175.519 159.289 179.427 158.071C182.927 156.571 195.427 150.071 198.927 141.571C202.427 133.071 200.927 124.071 200.927 120.071C200.927 116.871 198.261 107.405 196.927 103.071C195.927 98.238 191.927 90.0714 183.927 96.0714C173.927 103.571 164.927 124.571 162.427 132.071Z" stroke="#FF3D7F" stroke-width="0.5"/>
<path d="M145.427 41.0714C135.027 70.2714 142.427 81.5714 147.427 83.0714C149.626 84.4646 154.01 85.6519 155.927 86.0714C164.927 87.5714 174.427 76.5714 178.927 69.5714C183.927 63.0714 183.927 51.0714 183.927 47.0714C183.927 43.0714 181.927 34.5714 180.427 30.5714C179.227 27.3714 176.594 23.5714 175.427 22.0714C174.261 20.738 171.527 17.8714 169.927 17.0714C167.927 16.0714 165.427 15.5714 161.427 16.5714C157.427 17.5714 153.427 23.5714 152.427 25.0714C151.427 26.5714 147.927 33.5714 145.427 41.0714Z" stroke="#FF3D7F" stroke-width="0.5"/>
<path d="M77.9275 49.5714C78.3275 58.7714 87.4275 65.4047 91.9275 67.5714C94.0941 68.238 99.7275 69.0714 104.927 67.0714C111.427 64.5714 116.427 52.5714 118.927 47.0714C121.427 41.5714 125.427 28.5714 125.927 15.0714C126.327 4.27138 118.094 1.23805 113.927 1.07138C108.761 0.571378 96.2275 2.47138 87.4275 14.0714C76.4275 28.5714 77.4275 38.0714 77.9275 49.5714Z" stroke="#FF3D7F" stroke-width="0.5"/>
<path d="M23.9275 57.5714C20.3275 73.1714 27.4275 83.0714 31.4275 86.0714C32.9275 86.738 36.6275 87.9714 39.4275 87.5714C40.5941 87.5714 43.9275 86.9714 47.9275 84.5714C54.9275 81.5714 59.4275 65.0714 60.9275 57.5714C62.4275 50.0714 61.9275 42.0714 61.9275 37.0714C61.9275 33.0714 60.2608 28.4047 59.4275 26.5714C58.9275 25.738 57.4275 24.0714 55.4275 24.0714C53.4275 24.0714 50.2608 25.738 48.9275 26.5714C42.4275 30.738 28.3275 42.7714 23.9275 57.5714Z" stroke="#FF3D7F" stroke-width="0.5"/>
<path d="M111.927 143.571C110.927 143.071 113.094 141.405 113.927 141.571C114.174 142.134 114.519 143.322 113.927 143.571C113.594 143.905 112.927 144.071 111.927 143.571Z" stroke="#FF3D7F" stroke-width="0.5"/>
<path d="M117.427 140.571C117.427 139.771 118.427 139.571 118.927 139.571C119.327 139.971 118.761 140.738 118.427 141.071C118.094 141.238 117.427 141.371 117.427 140.571Z" stroke="#FF3D7F" stroke-width="0.5"/>
<path d="M116.927 144.071C117.327 144.471 116.761 144.905 116.427 145.071C115.627 145.071 115.761 144.405 115.927 144.071C116.094 143.905 116.527 143.671 116.927 144.071Z" stroke="#FF3D7F" stroke-width="0.5"/>
<path d="M274 93.9345V137.843H281.79V119.43H300.204V113.764H281.79V100.308H301.62V93.9345H274Z" fill="#FF3D7F"/>
<path d="M348.361 139.968C332.458 140.066 323.516 124.783 324.282 115.889C325.049 106.994 329.24 95.1151 344.82 92.5181C360.401 89.9212 368.135 102.524 369.607 108.807C371.08 115.089 370.727 139.829 348.361 139.968Z" fill="#FF3D7F"/>
<path d="M650.056 140.538C634.152 140.637 625.841 126.623 625.977 116.46C626.113 106.296 631.087 94.9797 646.515 93.0888C661.943 91.198 669.829 103.095 671.302 109.377C672.775 115.66 672.422 140.399 650.056 140.538Z" fill="#FF3D7F"/>
<path d="M435.47 98.1831L430.513 103.849L429.805 104.557C429.805 103.99 426.028 101.96 424.139 101.016C417.057 98.1831 411.391 100.308 405.726 105.973C400.627 114.472 403.601 122.734 405.726 125.803C406.67 127.692 410.258 131.752 417.057 132.885C423.856 134.018 428.861 129.108 430.513 126.511L435.47 132.177C430.041 136.426 416.491 143.367 405.726 137.134C399.352 132.177 394.395 124.387 393.686 115.18C393.686 113.764 393.686 105.265 400.06 98.1831C415.357 85.7188 430.041 92.9896 435.47 98.1831Z" fill="#FF3D7F"/>
<path d="M467.34 137.843H459.549V93.9339H467.34V137.843Z" fill="#FF3D7F"/>
<path d="M504.166 137.843H495.668V93.9339H499.917L526.829 123.678V93.9339H535.327V137.843H531.078L504.166 109.514V137.843Z" fill="#FF3D7F"/>
<path d="M570.737 137.843H562.239V93.9339H570.737V112.347H591.983V93.9339H600.482V137.843H593.4V118.013H570.737V137.843Z" fill="#FF3D7F"/>
<path d="M274 93.9345V137.843H281.79V119.43H300.204V113.764H281.79V100.308H301.62V93.9345H274Z" stroke="#FF3D7F" stroke-width="1.41641"/>
<path d="M348.361 139.968C332.458 140.066 323.516 124.783 324.282 115.889C325.049 106.994 329.24 95.1151 344.82 92.5181C360.401 89.9212 368.135 102.524 369.607 108.807C371.08 115.089 370.727 139.829 348.361 139.968Z" stroke="#FF3D7F" stroke-width="1.41641"/>
<path d="M650.056 140.538C634.152 140.637 625.841 126.623 625.977 116.46C626.113 106.296 631.087 94.9797 646.515 93.0888C661.943 91.198 669.829 103.095 671.302 109.377C672.775 115.66 672.422 140.399 650.056 140.538Z" stroke="#FF3D7F" stroke-width="1.41641"/>
<path d="M435.47 98.1831L430.513 103.849L429.805 104.557C429.805 103.99 426.028 101.96 424.139 101.016C417.057 98.1831 411.391 100.308 405.726 105.973C400.627 114.472 403.601 122.734 405.726 125.803C406.67 127.692 410.258 131.752 417.057 132.885C423.856 134.018 428.861 129.108 430.513 126.511L435.47 132.177C430.041 136.426 416.491 143.367 405.726 137.134C399.352 132.177 394.395 124.387 393.686 115.18C393.686 113.764 393.686 105.265 400.06 98.1831C415.357 85.7188 430.041 92.9896 435.47 98.1831Z" stroke="#FF3D7F" stroke-width="1.41641"/>
<path d="M467.34 137.843H459.549V93.9339H467.34V137.843Z" stroke="#FF3D7F" stroke-width="1.41641"/>
<path d="M504.166 137.843H495.668V93.9339H499.917L526.829 123.678V93.9339H535.327V137.843H531.078L504.166 109.514V137.843Z" stroke="#FF3D7F" stroke-width="1.41641"/>
<path d="M570.737 137.843H562.239V93.9339H570.737V112.347H591.983V93.9339H600.482V137.843H593.4V118.013H570.737V137.843Z" stroke="#FF3D7F" stroke-width="1.41641"/>
<ellipse cx="347.756" cy="115.787" rx="24.0789" ry="24.7871" fill="#FF3D7F"/>
<ellipse cx="347.756" cy="115.787" rx="15.5805" ry="14.8723" fill="#3FB8AF"/>
<ellipse cx="347.756" cy="115.787" rx="15.5805" ry="14.8723" fill="#3FB8AF"/>
<ellipse cx="648.034" cy="117.204" rx="24.0789" ry="24.7871" fill="#FF3D7F"/>
<ellipse cx="648.034" cy="117.204" rx="15.5805" ry="14.8723" fill="#3FB8AF"/>
<ellipse cx="648.034" cy="117.204" rx="15.5805" ry="14.8723" fill="#3FB8AF"/>
</svg>
